<?xml version="1.0"?>
<!-- Generated by SVGo -->
<svg width="354.527mm" height="139.264mm"
     viewBox="0.000 0.000 354.527 139.264"
     xmlns="http://www.w3.org/2000/svg" 
     xmlns:xlink="http://www.w3.org/1999/xlink">
<polygon points="344.527,5.001 344.919,5.016 345.309,5.062 345.694,5.139 346.072,5.245 346.440,5.381 346.796,5.545 347.139,5.737 347.465,5.955 347.774,6.198 348.062,6.465 348.329,6.753 348.572,7.062 348.790,7.388 348.982,7.731 349.146,8.087 349.282,8.455 349.388,8.833 349.465,9.218 349.511,9.608 349.526,10.001 349.527,129.264 349.511,129.656 349.465,130.045 349.388,130.431 349.282,130.809 349.146,131.177 348.982,131.534 348.790,131.876 348.572,132.203 348.329,132.511 348.062,132.800 347.774,133.066 347.465,133.309 347.139,133.527 346.796,133.719 346.440,133.883 346.072,134.019 345.694,134.126 345.309,134.202 344.919,134.249 344.527,134.264 10.001,134.264 9.608,134.249 9.218,134.202 8.833,134.126 8.455,134.019 8.087,133.883 7.731,133.719 7.388,133.527 7.062,133.309 6.753,133.066 6.465,132.800 6.198,132.511 5.955,132.203 5.737,131.876 5.545,131.534 5.381,131.177 5.245,130.809 5.139,130.431 5.062,130.045 5.016,129.656 5.000,129.264 5.001,10.001 5.016,9.608 5.062,9.218 5.139,8.833 5.245,8.455 5.381,8.087 5.545,7.731 5.737,7.388 5.955,7.062 6.198,6.753 6.465,6.465 6.753,6.198 7.062,5.955 7.388,5.737 7.731,5.545 8.087,5.381 8.455,5.245 8.833,5.139 9.218,5.062 9.608,5.016 10.001,5.000" style="fill:none;stroke-width:0.050000mm;stroke:black"/>
<polygon points="10.500,123.300 8.501,126.764 10.501,130.228 14.501,130.228 16.501,126.764 14.501,123.300" style="fill:none;stroke-width:0.050000mm;stroke:black"/>
<polygon points="340.027,123.300 338.027,126.764 340.027,130.228 344.027,130.228 346.027,126.764 344.027,123.300" style="fill:none;stroke-width:0.050000mm;stroke:black"/>
<polygon points="119.264,89.400 118.264,91.132 119.264,92.864 121.264,92.864 122.264,91.132 121.264,89.400" style="fill:none;stroke-width:0.050000mm;stroke:black"/>
<polygon points="223.764,89.400 222.764,91.132 223.764,92.864 225.764,92.864 226.764,91.132 225.764,89.400" style="fill:none;stroke-width:0.050000mm;stroke:black"/>
<polygon points="123.764,51.400 122.764,53.132 123.764,54.864 125.764,54.864 126.764,53.132 125.764,51.400" style="fill:none;stroke-width:0.050000mm;stroke:black"/>
<polygon points="219.264,51.400 218.264,53.132 219.264,54.864 221.264,54.864 222.264,53.132 221.264,51.400" style="fill:none;stroke-width:0.050000mm;stroke:black"/>
<polygon points="10.500,9.036 8.501,12.501 10.501,15.965 14.501,15.965 16.501,12.500 14.501,9.036" style="fill:none;stroke-width:0.050000mm;stroke:black"/>
<polygon points="340.027,9.036 338.027,12.501 340.027,15.965 344.027,15.965 346.027,12.500 344.027,9.036" style="fill:none;stroke-width:0.050000mm;stroke:black"/>
</svg>
