<?xml version="1.0"?>
<!-- Generated by SVGo -->
<svg width="354.327mm" height="139.064mm"
     viewBox="0.000 0.000 354.327 139.064"
     xmlns="http://www.w3.org/2000/svg" 
     xmlns:xlink="http://www.w3.org/1999/xlink">
<polygon points="344.327,5.001 344.719,5.016 345.109,5.062 345.494,5.139 345.872,5.245 346.240,5.381 346.596,5.545 346.939,5.737 347.265,5.955 347.574,6.198 347.862,6.465 348.129,6.753 348.372,7.062 348.590,7.388 348.782,7.731 348.946,8.087 349.082,8.455 349.188,8.833 349.265,9.218 349.311,9.608 349.326,10.001 349.327,129.063 349.311,129.456 349.265,129.846 349.188,130.230 349.082,130.609 348.946,130.977 348.782,131.334 348.590,131.676 348.372,132.003 348.129,132.311 347.862,132.600 347.574,132.866 347.265,133.109 346.939,133.327 346.596,133.519 346.240,133.683 345.872,133.819 345.494,133.926 345.109,134.002 344.719,134.049 344.327,134.064 10.001,134.064 9.608,134.049 9.218,134.002 8.833,133.926 8.455,133.819 8.087,133.683 7.731,133.519 7.388,133.327 7.062,133.109 6.753,132.866 6.465,132.600 6.198,132.311 5.955,132.003 5.737,131.676 5.545,131.334 5.381,130.977 5.245,130.609 5.139,130.230 5.062,129.846 5.016,129.456 5.000,129.063 5.001,10.001 5.016,9.608 5.062,9.218 5.139,8.833 5.245,8.455 5.381,8.087 5.545,7.731 5.737,7.388 5.955,7.062 6.198,6.753 6.465,6.465 6.753,6.198 7.062,5.955 7.388,5.737 7.731,5.545 8.087,5.381 8.455,5.245 8.833,5.139 9.218,5.062 9.608,5.016 10.001,5.000" style="fill:none;stroke-width:0.050000mm;stroke:black"/>
<polygon points="20.001,10.001 20.001,129.063 334.327,129.063 334.327,10.001" style="fill:none;stroke-width:0.050000mm;stroke:black"/>
<polygon points="12.344,124.570 12.188,124.589 12.034,124.619 11.882,124.662 11.735,124.716 11.593,124.782 11.456,124.859 11.325,124.946 11.202,125.043 11.086,125.150 10.980,125.265 10.882,125.388 10.795,125.519 10.718,125.656 10.653,125.799 10.598,125.946 10.556,126.097 10.525,126.251 10.507,126.407 10.500,126.564 10.507,126.721 10.525,126.877 10.556,127.031 10.598,127.182 10.653,127.329 10.718,127.472 10.795,127.609 10.882,127.740 10.980,127.863 11.086,127.978 11.202,128.085 11.325,128.182 11.456,128.269 11.593,128.346 11.735,128.412 11.882,128.466 12.034,128.509 12.188,128.539 12.344,128.557 12.501,128.563 12.657,128.557 12.813,128.539 12.967,128.509 13.119,128.466 13.266,128.412 13.408,128.346 13.545,128.269 13.676,128.182 13.799,128.085 13.915,127.978 14.021,127.863 14.119,127.740 14.206,127.609 14.283,127.472 14.348,127.329 14.403,127.182 14.445,127.031 14.476,126.877 14.494,126.721 14.501,126.564 14.494,126.407 14.476,126.251 14.445,126.097 14.403,125.946 14.348,125.799 14.283,125.656 14.206,125.519 14.119,125.388 14.021,125.265 13.915,125.150 13.799,125.043 13.676,124.946 13.545,124.859 13.408,124.782 13.266,124.716 13.119,124.662 12.967,124.619 12.813,124.589 12.657,124.570 12.501,124.564" style="fill:none;stroke-width:0.050000mm;stroke:black"/>
<polygon points="341.670,124.570 341.514,124.589 341.360,124.619 341.208,124.662 341.061,124.716 340.919,124.782 340.782,124.859 340.651,124.946 340.528,125.043 340.412,125.150 340.306,125.265 340.208,125.388 340.121,125.519 340.044,125.656 339.979,125.799 339.924,125.946 339.882,126.097 339.851,126.251 339.833,126.407 339.826,126.564 339.833,126.721 339.851,126.877 339.882,127.031 339.924,127.182 339.979,127.329 340.044,127.472 340.121,127.609 340.208,127.740 340.306,127.863 340.412,127.978 340.528,128.085 340.651,128.182 340.782,128.269 340.919,128.346 341.061,128.412 341.208,128.466 341.360,128.509 341.514,128.539 341.670,128.557 341.827,128.563 341.983,128.557 342.139,128.539 342.293,128.509 342.445,128.466 342.592,128.412 342.734,128.346 342.871,128.269 343.002,128.182 343.125,128.085 343.241,127.978 343.347,127.863 343.445,127.740 343.532,127.609 343.609,127.472 343.674,127.329 343.729,127.182 343.771,127.031 343.802,126.877 343.820,126.721 343.827,126.564 343.820,126.407 343.802,126.251 343.771,126.097 343.729,125.946 343.674,125.799 343.609,125.656 343.532,125.519 343.445,125.388 343.347,125.265 343.241,125.150 343.125,125.043 343.002,124.946 342.871,124.859 342.734,124.782 342.592,124.716 342.445,124.662 342.293,124.619 342.139,124.589 341.983,124.570 341.827,124.564" style="fill:none;stroke-width:0.050000mm;stroke:black"/>
<polygon points="12.344,10.507 12.188,10.525 12.034,10.556 11.882,10.598 11.735,10.653 11.593,10.718 11.456,10.795 11.325,10.882 11.202,10.980 11.086,11.086 10.980,11.202 10.882,11.325 10.795,11.456 10.718,11.593 10.653,11.735 10.598,11.882 10.556,12.034 10.525,12.188 10.507,12.344 10.500,12.501 10.507,12.657 10.525,12.813 10.556,12.967 10.598,13.119 10.653,13.266 10.718,13.408 10.795,13.545 10.882,13.676 10.980,13.799 11.086,13.915 11.202,14.021 11.325,14.119 11.456,14.206 11.593,14.283 11.735,14.348 11.882,14.403 12.034,14.445 12.188,14.476 12.344,14.494 12.501,14.501 12.657,14.494 12.813,14.476 12.967,14.445 13.119,14.403 13.266,14.348 13.408,14.283 13.545,14.206 13.676,14.119 13.799,14.021 13.915,13.915 14.021,13.799 14.119,13.676 14.206,13.545 14.283,13.408 14.348,13.266 14.403,13.119 14.445,12.967 14.476,12.813 14.494,12.657 14.501,12.501 14.494,12.344 14.476,12.188 14.445,12.034 14.403,11.882 14.348,11.735 14.283,11.593 14.206,11.456 14.119,11.325 14.021,11.202 13.915,11.086 13.799,10.980 13.676,10.882 13.545,10.795 13.408,10.718 13.266,10.653 13.119,10.598 12.967,10.556 12.813,10.525 12.657,10.507 12.501,10.501" style="fill:none;stroke-width:0.050000mm;stroke:black"/>
<polygon points="341.670,10.507 341.514,10.525 341.360,10.556 341.208,10.598 341.061,10.653 340.919,10.718 340.782,10.795 340.651,10.882 340.528,10.980 340.412,11.086 340.306,11.202 340.208,11.325 340.121,11.456 340.044,11.593 339.979,11.735 339.924,11.882 339.882,12.034 339.851,12.188 339.833,12.344 339.826,12.501 339.833,12.657 339.851,12.813 339.882,12.967 339.924,13.119 339.979,13.266 340.044,13.408 340.121,13.545 340.208,13.676 340.306,13.799 340.412,13.915 340.528,14.021 340.651,14.119 340.782,14.206 340.919,14.283 341.061,14.348 341.208,14.403 341.360,14.445 341.514,14.476 341.670,14.494 341.827,14.501 341.983,14.494 342.139,14.476 342.293,14.445 342.445,14.403 342.592,14.348 342.734,14.283 342.871,14.206 343.002,14.119 343.125,14.021 343.241,13.915 343.347,13.799 343.445,13.676 343.532,13.545 343.609,13.408 343.674,13.266 343.729,13.119 343.771,12.967 343.802,12.813 343.820,12.657 343.827,12.501 343.820,12.344 343.802,12.188 343.771,12.034 343.729,11.882 343.674,11.735 343.609,11.593 343.532,11.456 343.445,11.325 343.347,11.202 343.241,11.086 343.125,10.980 343.002,10.882 342.871,10.795 342.734,10.718 342.592,10.653 342.445,10.598 342.293,10.556 342.139,10.525 341.983,10.507 341.827,10.501" style="fill:none;stroke-width:0.050000mm;stroke:black"/>
</svg>
