<?xml version="1.0"?>
<!-- Generated by SVGo -->
<svg width="354.527mm" height="139.264mm"
     viewBox="0.000 0.000 354.527 139.264"
     xmlns="http://www.w3.org/2000/svg" 
     xmlns:xlink="http://www.w3.org/1999/xlink">
<polygon points="344.527,5.001 344.919,5.016 345.309,5.062 345.694,5.139 346.072,5.245 346.440,5.381 346.796,5.545 347.139,5.737 347.465,5.955 347.774,6.198 348.062,6.465 348.329,6.753 348.572,7.062 348.790,7.388 348.982,7.731 349.146,8.087 349.282,8.455 349.388,8.833 349.465,9.218 349.511,9.608 349.526,10.001 349.527,129.264 349.511,129.656 349.465,130.045 349.388,130.431 349.282,130.809 349.146,131.177 348.982,131.534 348.790,131.876 348.572,132.203 348.329,132.511 348.062,132.800 347.774,133.066 347.465,133.309 347.139,133.527 346.796,133.719 346.440,133.883 346.072,134.019 345.694,134.126 345.309,134.202 344.919,134.249 344.527,134.264 10.001,134.264 9.608,134.249 9.218,134.202 8.833,134.126 8.455,134.019 8.087,133.883 7.731,133.719 7.388,133.527 7.062,133.309 6.753,133.066 6.465,132.800 6.198,132.511 5.955,132.203 5.737,131.876 5.545,131.534 5.381,131.177 5.245,130.809 5.139,130.431 5.062,130.045 5.016,129.656 5.000,129.264 5.001,10.001 5.016,9.608 5.062,9.218 5.139,8.833 5.245,8.455 5.381,8.087 5.545,7.731 5.737,7.388 5.955,7.062 6.198,6.753 6.465,6.465 6.753,6.198 7.062,5.955 7.388,5.737 7.731,5.545 8.087,5.381 8.455,5.245 8.833,5.139 9.218,5.062 9.608,5.016 10.001,5.000" style="fill:none;stroke-width:0.050000mm;stroke:black"/>
<polygon points="12.344,124.770 12.188,124.789 12.034,124.819 11.882,124.862 11.735,124.916 11.593,124.982 11.456,125.059 11.325,125.146 11.202,125.243 11.086,125.350 10.980,125.465 10.882,125.588 10.795,125.719 10.718,125.856 10.653,125.999 10.598,126.146 10.556,126.297 10.525,126.451 10.507,126.607 10.500,126.764 10.507,126.921 10.525,127.077 10.556,127.231 10.598,127.382 10.653,127.529 10.718,127.672 10.795,127.809 10.882,127.940 10.980,128.063 11.086,128.177 11.202,128.284 11.325,128.382 11.456,128.468 11.593,128.545 11.735,128.611 11.882,128.665 12.034,128.709 12.188,128.739 12.344,128.758 12.501,128.764 12.657,128.758 12.813,128.739 12.967,128.709 13.119,128.665 13.266,128.611 13.408,128.545 13.545,128.468 13.676,128.382 13.799,128.284 13.915,128.177 14.021,128.063 14.119,127.940 14.206,127.809 14.283,127.672 14.348,127.529 14.403,127.382 14.445,127.231 14.476,127.077 14.494,126.921 14.501,126.764 14.494,126.607 14.476,126.451 14.445,126.297 14.403,126.146 14.348,125.999 14.283,125.856 14.206,125.719 14.119,125.588 14.021,125.465 13.915,125.350 13.799,125.243 13.676,125.146 13.545,125.059 13.408,124.982 13.266,124.916 13.119,124.862 12.967,124.819 12.813,124.789 12.657,124.770 12.501,124.764" style="fill:none;stroke-width:0.050000mm;stroke:black"/>
<polygon points="341.870,124.770 341.714,124.789 341.560,124.819 341.408,124.862 341.261,124.916 341.119,124.982 340.982,125.059 340.851,125.146 340.728,125.243 340.612,125.350 340.506,125.465 340.408,125.588 340.321,125.719 340.244,125.856 340.179,125.999 340.124,126.146 340.082,126.297 340.051,126.451 340.033,126.607 340.027,126.764 340.033,126.921 340.051,127.077 340.082,127.231 340.124,127.382 340.179,127.529 340.244,127.672 340.321,127.809 340.408,127.940 340.506,128.063 340.612,128.177 340.728,128.284 340.851,128.382 340.982,128.468 341.119,128.545 341.261,128.611 341.408,128.665 341.560,128.709 341.714,128.739 341.870,128.758 342.027,128.764 342.183,128.758 342.339,128.739 342.493,128.709 342.645,128.665 342.792,128.611 342.934,128.545 343.071,128.468 343.202,128.382 343.325,128.284 343.441,128.177 343.547,128.063 343.645,127.940 343.732,127.809 343.809,127.672 343.874,127.529 343.929,127.382 343.971,127.231 344.002,127.077 344.020,126.921 344.027,126.764 344.020,126.607 344.002,126.451 343.971,126.297 343.929,126.146 343.874,125.999 343.809,125.856 343.732,125.719 343.645,125.588 343.547,125.465 343.441,125.350 343.325,125.243 343.202,125.146 343.071,125.059 342.934,124.982 342.792,124.916 342.645,124.862 342.493,124.819 342.339,124.789 342.183,124.770 342.027,124.764" style="fill:none;stroke-width:0.050000mm;stroke:black"/>
<polygon points="153.694,112.738 153.694,117.438 113.869,117.438 113.869,114.208 107.319,114.208 107.319,117.438 106.494,117.438 106.494,120.038 107.319,120.038 107.319,126.308 109.044,126.308 109.044,127.508 112.144,127.508 112.144,126.308 113.869,126.308 113.869,121.838 153.694,121.838 153.694,126.538 167.494,126.538 167.494,121.838 207.319,121.838 207.319,126.308 209.044,126.308 209.044,127.508 212.144,127.508 212.144,126.308 213.869,126.308 213.869,120.038 214.694,120.038 214.694,117.438 213.869,117.438 213.869,114.208 207.319,114.208 207.319,117.438 167.494,117.438 167.494,112.738" style="fill:none;stroke-width:0.050000mm;stroke:black"/>
<polygon points="22.726,112.738 22.726,126.538 36.526,126.538 36.526,112.738" style="fill:none;stroke-width:0.050000mm;stroke:black"/>
<polygon points="41.776,112.738 41.776,126.538 55.575,126.538 55.575,112.738" style="fill:none;stroke-width:0.050000mm;stroke:black"/>
<polygon points="60.825,112.738 60.825,126.538 74.626,126.538 74.626,112.738" style="fill:none;stroke-width:0.050000mm;stroke:black"/>
<polygon points="82.257,112.738 82.257,126.538 96.057,126.538 96.057,112.738" style="fill:none;stroke-width:0.050000mm;stroke:black"/>
<polygon points="225.132,112.738 225.132,126.538 238.932,126.538 238.932,112.738" style="fill:none;stroke-width:0.050000mm;stroke:black"/>
<polygon points="248.944,112.738 248.944,126.538 262.744,126.538 262.744,112.738" style="fill:none;stroke-width:0.050000mm;stroke:black"/>
<polygon points="279.901,112.738 279.901,126.538 293.701,126.538 293.701,112.738" style="fill:none;stroke-width:0.050000mm;stroke:black"/>
<polygon points="298.951,112.738 298.951,126.538 312.751,126.538 312.751,112.738" style="fill:none;stroke-width:0.050000mm;stroke:black"/>
<polygon points="318.001,112.738 318.001,126.538 331.801,126.538 331.801,112.738" style="fill:none;stroke-width:0.050000mm;stroke:black"/>
<polygon points="34.632,93.688 34.632,98.388 32.907,98.388 32.907,95.158 26.357,95.158 26.357,98.388 25.532,98.388 25.532,100.988 26.357,100.988 26.357,107.258 28.082,107.258 28.082,108.458 31.182,108.458 31.182,107.258 32.907,107.258 32.907,102.788 34.632,102.788 34.632,107.488 48.432,107.488 48.432,102.788 50.157,102.788 50.157,107.258 51.882,107.258 51.882,108.458 54.982,108.458 54.982,107.258 56.707,107.258 56.707,100.988 57.532,100.988 57.532,98.388 56.707,98.388 56.707,95.158 50.157,95.158 50.157,98.388 48.432,98.388 48.432,93.688" style="fill:none;stroke-width:0.050000mm;stroke:black"/>
<polygon points="267.994,93.688 267.994,98.388 266.269,98.388 266.269,95.158 259.719,95.158 259.719,98.388 258.893,98.388 258.893,100.988 259.719,100.988 259.719,107.258 261.443,107.258 261.443,108.458 264.544,108.458 264.544,107.258 266.269,107.258 266.269,102.788 267.994,102.788 267.994,107.488 281.794,107.488 281.794,102.788 283.519,102.788 283.519,107.258 285.244,107.258 285.244,108.458 288.344,108.458 288.344,107.258 290.069,107.258 290.069,100.988 290.894,100.988 290.894,98.388 290.069,98.388 290.069,95.158 283.519,95.158 283.519,98.388 281.794,98.388 281.794,93.688" style="fill:none;stroke-width:0.050000mm;stroke:black"/>
<polygon points="65.588,93.688 65.588,107.488 79.388,107.488 79.388,93.688" style="fill:none;stroke-width:0.050000mm;stroke:black"/>
<polygon points="84.638,93.688 84.638,107.488 98.438,107.488 98.438,93.688" style="fill:none;stroke-width:0.050000mm;stroke:black"/>
<polygon points="103.688,93.688 103.688,107.488 117.488,107.488 117.488,93.688" style="fill:none;stroke-width:0.050000mm;stroke:black"/>
<polygon points="122.738,93.688 122.738,107.488 136.538,107.488 136.538,93.688" style="fill:none;stroke-width:0.050000mm;stroke:black"/>
<polygon points="141.788,93.688 141.788,107.488 155.588,107.488 155.588,93.688" style="fill:none;stroke-width:0.050000mm;stroke:black"/>
<polygon points="160.838,93.688 160.838,107.488 174.638,107.488 174.638,93.688" style="fill:none;stroke-width:0.050000mm;stroke:black"/>
<polygon points="179.888,93.688 179.888,107.488 193.688,107.488 193.688,93.688" style="fill:none;stroke-width:0.050000mm;stroke:black"/>
<polygon points="198.938,93.688 198.938,107.488 212.738,107.488 212.738,93.688" style="fill:none;stroke-width:0.050000mm;stroke:black"/>
<polygon points="217.988,93.688 217.988,107.488 231.788,107.488 231.788,93.688" style="fill:none;stroke-width:0.050000mm;stroke:black"/>
<polygon points="237.038,93.688 237.038,107.488 250.838,107.488 250.838,93.688" style="fill:none;stroke-width:0.050000mm;stroke:black"/>
<polygon points="298.951,93.688 298.951,107.488 312.751,107.488 312.751,93.688" style="fill:none;stroke-width:0.050000mm;stroke:black"/>
<polygon points="120.185,90.135 120.107,90.145 120.030,90.160 119.954,90.181 119.881,90.208 119.810,90.241 119.741,90.280 119.676,90.323 119.614,90.372 119.556,90.425 119.503,90.483 119.454,90.544 119.411,90.610 119.372,90.678 119.340,90.750 119.312,90.823 119.291,90.899 119.276,90.976 119.267,91.054 119.264,91.132 119.267,91.211 119.276,91.289 119.291,91.366 119.312,91.441 119.340,91.515 119.372,91.586 119.411,91.655 119.454,91.720 119.503,91.782 119.556,91.839 119.614,91.893 119.676,91.941 119.741,91.985 119.810,92.023 119.881,92.056 119.954,92.083 120.030,92.105 120.107,92.120 120.185,92.129 120.264,92.132 120.342,92.129 120.420,92.120 120.497,92.105 120.573,92.083 120.646,92.056 120.717,92.023 120.786,91.985 120.851,91.941 120.913,91.893 120.971,91.839 121.024,91.782 121.073,91.720 121.116,91.655 121.155,91.586 121.187,91.515 121.215,91.441 121.236,91.366 121.251,91.289 121.260,91.211 121.264,91.132 121.260,91.054 121.251,90.976 121.236,90.899 121.215,90.823 121.187,90.750 121.155,90.678 121.116,90.610 121.073,90.544 121.024,90.483 120.971,90.425 120.913,90.372 120.851,90.323 120.786,90.280 120.717,90.241 120.646,90.208 120.573,90.181 120.497,90.160 120.420,90.145 120.342,90.135 120.264,90.132" style="fill:none;stroke-width:0.050000mm;stroke:black"/>
<polygon points="224.685,90.135 224.607,90.145 224.530,90.160 224.454,90.181 224.381,90.208 224.310,90.241 224.241,90.280 224.176,90.323 224.114,90.372 224.056,90.425 224.003,90.483 223.954,90.544 223.911,90.610 223.872,90.678 223.840,90.750 223.812,90.823 223.791,90.899 223.776,90.976 223.767,91.054 223.764,91.132 223.767,91.211 223.776,91.289 223.791,91.366 223.812,91.441 223.840,91.515 223.872,91.586 223.911,91.655 223.954,91.720 224.003,91.782 224.056,91.839 224.114,91.893 224.176,91.941 224.241,91.985 224.310,92.023 224.381,92.056 224.454,92.083 224.530,92.105 224.607,92.120 224.685,92.129 224.764,92.132 224.842,92.129 224.920,92.120 224.997,92.105 225.073,92.083 225.146,92.056 225.217,92.023 225.286,91.985 225.351,91.941 225.413,91.893 225.471,91.839 225.524,91.782 225.573,91.720 225.616,91.655 225.655,91.586 225.687,91.515 225.715,91.441 225.736,91.366 225.751,91.289 225.760,91.211 225.764,91.132 225.760,91.054 225.751,90.976 225.736,90.899 225.715,90.823 225.687,90.750 225.655,90.678 225.616,90.610 225.573,90.544 225.524,90.483 225.471,90.425 225.413,90.372 225.351,90.323 225.286,90.280 225.217,90.241 225.146,90.208 225.073,90.181 224.997,90.160 224.920,90.145 224.842,90.135 224.764,90.132" style="fill:none;stroke-width:0.050000mm;stroke:black"/>
<polygon points="277.519,74.638 277.519,79.338 275.794,79.338 275.794,76.108 269.244,76.108 269.244,79.338 268.419,79.338 268.419,81.938 269.244,81.938 269.244,88.208 270.969,88.208 270.969,89.408 274.069,89.408 274.069,88.208 275.794,88.208 275.794,83.738 277.519,83.738 277.519,88.438 291.319,88.438 291.319,83.738 293.044,83.738 293.044,88.208 294.769,88.208 294.769,89.408 297.869,89.408 297.869,88.208 299.594,88.208 299.594,81.938 300.419,81.938 300.419,79.338 299.594,79.338 299.594,76.108 293.044,76.108 293.044,79.338 291.319,79.338 291.319,74.638" style="fill:none;stroke-width:0.050000mm;stroke:black"/>
<polygon points="29.869,74.638 29.869,88.438 43.669,88.438 43.669,74.638" style="fill:none;stroke-width:0.050000mm;stroke:black"/>
<polygon points="56.063,74.638 56.063,88.438 69.863,88.438 69.863,74.638" style="fill:none;stroke-width:0.050000mm;stroke:black"/>
<polygon points="75.113,74.638 75.113,88.438 88.913,88.438 88.913,74.638" style="fill:none;stroke-width:0.050000mm;stroke:black"/>
<polygon points="94.163,74.638 94.163,88.438 107.963,88.438 107.963,74.638" style="fill:none;stroke-width:0.050000mm;stroke:black"/>
<polygon points="113.213,74.638 113.213,88.438 127.013,88.438 127.013,74.638" style="fill:none;stroke-width:0.050000mm;stroke:black"/>
<polygon points="132.263,74.638 132.263,88.438 146.063,88.438 146.063,74.638" style="fill:none;stroke-width:0.050000mm;stroke:black"/>
<polygon points="151.313,74.638 151.313,88.438 165.113,88.438 165.113,74.638" style="fill:none;stroke-width:0.050000mm;stroke:black"/>
<polygon points="170.363,74.638 170.363,88.438 184.163,88.438 184.163,74.638" style="fill:none;stroke-width:0.050000mm;stroke:black"/>
<polygon points="189.413,74.638 189.413,88.438 203.213,88.438 203.213,74.638" style="fill:none;stroke-width:0.050000mm;stroke:black"/>
<polygon points="208.463,74.638 208.463,88.438 222.263,88.438 222.263,74.638" style="fill:none;stroke-width:0.050000mm;stroke:black"/>
<polygon points="227.513,74.638 227.513,88.438 241.313,88.438 241.313,74.638" style="fill:none;stroke-width:0.050000mm;stroke:black"/>
<polygon points="246.563,74.638 246.563,88.438 260.363,88.438 260.363,74.638" style="fill:none;stroke-width:0.050000mm;stroke:black"/>
<polygon points="318.001,65.112 318.001,78.913 331.801,78.913 331.801,65.112" style="fill:none;stroke-width:0.050000mm;stroke:black"/>
<polygon points="27.488,55.588 27.488,69.388 41.288,69.388 41.288,55.588" style="fill:none;stroke-width:0.050000mm;stroke:black"/>
<polygon points="51.301,55.588 51.301,69.388 65.100,69.388 65.100,55.588" style="fill:none;stroke-width:0.050000mm;stroke:black"/>
<polygon points="70.351,55.588 70.351,69.388 84.151,69.388 84.151,55.588" style="fill:none;stroke-width:0.050000mm;stroke:black"/>
<polygon points="89.400,55.588 89.400,69.388 103.201,69.388 103.201,55.588" style="fill:none;stroke-width:0.050000mm;stroke:black"/>
<polygon points="108.450,55.588 108.450,69.388 122.251,69.388 122.251,55.588" style="fill:none;stroke-width:0.050000mm;stroke:black"/>
<polygon points="127.501,55.588 127.501,69.388 141.301,69.388 141.301,55.588" style="fill:none;stroke-width:0.050000mm;stroke:black"/>
<polygon points="146.551,55.588 146.551,69.388 160.351,69.388 160.351,55.588" style="fill:none;stroke-width:0.050000mm;stroke:black"/>
<polygon points="165.601,55.588 165.601,69.388 179.401,69.388 179.401,55.588" style="fill:none;stroke-width:0.050000mm;stroke:black"/>
<polygon points="184.651,55.588 184.651,69.388 198.451,69.388 198.451,55.588" style="fill:none;stroke-width:0.050000mm;stroke:black"/>
<polygon points="203.701,55.588 203.701,69.388 217.501,69.388 217.501,55.588" style="fill:none;stroke-width:0.050000mm;stroke:black"/>
<polygon points="222.751,55.588 222.751,69.388 236.551,69.388 236.551,55.588" style="fill:none;stroke-width:0.050000mm;stroke:black"/>
<polygon points="241.801,55.588 241.801,69.388 255.601,69.388 255.601,55.588" style="fill:none;stroke-width:0.050000mm;stroke:black"/>
<polygon points="260.851,55.588 260.851,69.388 274.651,69.388 274.651,55.588" style="fill:none;stroke-width:0.050000mm;stroke:black"/>
<polygon points="284.663,55.588 284.663,69.388 298.463,69.388 298.463,55.588" style="fill:none;stroke-width:0.050000mm;stroke:black"/>
<polygon points="318.001,46.063 318.001,59.863 331.801,59.863 331.801,46.063" style="fill:none;stroke-width:0.050000mm;stroke:black"/>
<polygon points="124.685,52.135 124.607,52.145 124.530,52.160 124.454,52.181 124.381,52.208 124.310,52.241 124.241,52.280 124.176,52.323 124.114,52.372 124.056,52.425 124.003,52.483 123.954,52.544 123.911,52.610 123.872,52.678 123.840,52.750 123.812,52.823 123.791,52.899 123.776,52.976 123.767,53.054 123.764,53.132 123.767,53.211 123.776,53.289 123.791,53.366 123.812,53.441 123.840,53.515 123.872,53.586 123.911,53.655 123.954,53.720 124.003,53.782 124.056,53.839 124.114,53.893 124.176,53.941 124.241,53.985 124.310,54.023 124.381,54.056 124.454,54.083 124.530,54.105 124.607,54.120 124.685,54.129 124.764,54.132 124.842,54.129 124.920,54.120 124.997,54.105 125.073,54.083 125.146,54.056 125.217,54.023 125.286,53.985 125.351,53.941 125.413,53.893 125.471,53.839 125.524,53.782 125.573,53.720 125.616,53.655 125.655,53.586 125.687,53.515 125.715,53.441 125.736,53.366 125.751,53.289 125.760,53.211 125.764,53.132 125.760,53.054 125.751,52.976 125.736,52.899 125.715,52.823 125.687,52.750 125.655,52.678 125.616,52.610 125.573,52.544 125.524,52.483 125.471,52.425 125.413,52.372 125.351,52.323 125.286,52.280 125.217,52.241 125.146,52.208 125.073,52.181 124.997,52.160 124.920,52.145 124.842,52.135 124.764,52.132" style="fill:none;stroke-width:0.050000mm;stroke:black"/>
<polygon points="220.185,52.135 220.107,52.145 220.030,52.160 219.954,52.181 219.881,52.208 219.810,52.241 219.741,52.280 219.676,52.323 219.614,52.372 219.556,52.425 219.503,52.483 219.454,52.544 219.411,52.610 219.372,52.678 219.340,52.750 219.312,52.823 219.291,52.899 219.276,52.976 219.267,53.054 219.264,53.132 219.267,53.211 219.276,53.289 219.291,53.366 219.312,53.441 219.340,53.515 219.372,53.586 219.411,53.655 219.454,53.720 219.503,53.782 219.556,53.839 219.614,53.893 219.676,53.941 219.741,53.985 219.810,54.023 219.881,54.056 219.954,54.083 220.030,54.105 220.107,54.120 220.185,54.129 220.264,54.132 220.342,54.129 220.420,54.120 220.497,54.105 220.573,54.083 220.646,54.056 220.717,54.023 220.786,53.985 220.851,53.941 220.913,53.893 220.971,53.839 221.024,53.782 221.073,53.720 221.116,53.655 221.155,53.586 221.187,53.515 221.215,53.441 221.236,53.366 221.251,53.289 221.260,53.211 221.264,53.132 221.260,53.054 221.251,52.976 221.236,52.899 221.215,52.823 221.187,52.750 221.155,52.678 221.116,52.610 221.073,52.544 221.024,52.483 220.971,52.425 220.913,52.372 220.851,52.323 220.786,52.280 220.717,52.241 220.646,52.208 220.573,52.181 220.497,52.160 220.420,52.145 220.342,52.135 220.264,52.132" style="fill:none;stroke-width:0.050000mm;stroke:black"/>
<polygon points="279.901,36.538 279.901,41.238 278.176,41.238 278.176,38.008 271.626,38.008 271.626,41.238 270.801,41.238 270.801,43.838 271.626,43.838 271.626,50.108 273.351,50.108 273.351,51.308 276.451,51.308 276.451,50.108 278.176,50.108 278.176,45.638 279.901,45.638 279.901,50.338 293.701,50.338 293.701,45.638 295.426,45.638 295.426,50.108 297.151,50.108 297.151,51.308 300.251,51.308 300.251,50.108 301.976,50.108 301.976,43.838 302.801,43.838 302.801,41.238 301.976,41.238 301.976,38.008 295.426,38.008 295.426,41.238 293.701,41.238 293.701,36.538" style="fill:none;stroke-width:0.050000mm;stroke:black"/>
<polygon points="22.726,36.538 22.726,50.338 36.526,50.338 36.526,36.538" style="fill:none;stroke-width:0.050000mm;stroke:black"/>
<polygon points="41.776,36.538 41.776,50.338 55.575,50.338 55.575,36.538" style="fill:none;stroke-width:0.050000mm;stroke:black"/>
<polygon points="60.825,36.538 60.825,50.338 74.626,50.338 74.626,36.538" style="fill:none;stroke-width:0.050000mm;stroke:black"/>
<polygon points="79.875,36.538 79.875,50.338 93.676,50.338 93.676,36.538" style="fill:none;stroke-width:0.050000mm;stroke:black"/>
<polygon points="98.925,36.538 98.925,50.338 112.726,50.338 112.726,36.538" style="fill:none;stroke-width:0.050000mm;stroke:black"/>
<polygon points="117.975,36.538 117.975,50.338 131.775,50.338 131.775,36.538" style="fill:none;stroke-width:0.050000mm;stroke:black"/>
<polygon points="137.025,36.538 137.025,50.338 150.826,50.338 150.826,36.538" style="fill:none;stroke-width:0.050000mm;stroke:black"/>
<polygon points="156.076,36.538 156.076,50.338 169.876,50.338 169.876,36.538" style="fill:none;stroke-width:0.050000mm;stroke:black"/>
<polygon points="175.126,36.538 175.126,50.338 188.926,50.338 188.926,36.538" style="fill:none;stroke-width:0.050000mm;stroke:black"/>
<polygon points="194.176,36.538 194.176,50.338 207.976,50.338 207.976,36.538" style="fill:none;stroke-width:0.050000mm;stroke:black"/>
<polygon points="213.226,36.538 213.226,50.338 227.026,50.338 227.026,36.538" style="fill:none;stroke-width:0.050000mm;stroke:black"/>
<polygon points="232.276,36.538 232.276,50.338 246.076,50.338 246.076,36.538" style="fill:none;stroke-width:0.050000mm;stroke:black"/>
<polygon points="251.326,36.538 251.326,50.338 265.126,50.338 265.126,36.538" style="fill:none;stroke-width:0.050000mm;stroke:black"/>
<polygon points="22.726,12.726 22.726,26.526 36.526,26.526 36.526,12.726" style="fill:none;stroke-width:0.050000mm;stroke:black"/>
<polygon points="51.301,12.726 51.301,26.526 65.100,26.526 65.100,12.726" style="fill:none;stroke-width:0.050000mm;stroke:black"/>
<polygon points="70.351,12.726 70.351,26.526 84.151,26.526 84.151,12.726" style="fill:none;stroke-width:0.050000mm;stroke:black"/>
<polygon points="89.400,12.726 89.400,26.526 103.201,26.526 103.201,12.726" style="fill:none;stroke-width:0.050000mm;stroke:black"/>
<polygon points="108.450,12.726 108.450,26.526 122.251,26.526 122.251,12.726" style="fill:none;stroke-width:0.050000mm;stroke:black"/>
<polygon points="137.026,12.726 137.026,26.526 150.826,26.526 150.826,12.726" style="fill:none;stroke-width:0.050000mm;stroke:black"/>
<polygon points="156.076,12.726 156.076,26.526 169.876,26.526 169.876,12.726" style="fill:none;stroke-width:0.050000mm;stroke:black"/>
<polygon points="175.126,12.726 175.126,26.526 188.926,26.526 188.926,12.726" style="fill:none;stroke-width:0.050000mm;stroke:black"/>
<polygon points="194.176,12.726 194.176,26.526 207.976,26.526 207.976,12.726" style="fill:none;stroke-width:0.050000mm;stroke:black"/>
<polygon points="222.751,12.726 222.751,26.526 236.551,26.526 236.551,12.726" style="fill:none;stroke-width:0.050000mm;stroke:black"/>
<polygon points="241.801,12.726 241.801,26.526 255.601,26.526 255.601,12.726" style="fill:none;stroke-width:0.050000mm;stroke:black"/>
<polygon points="260.851,12.726 260.851,26.526 274.651,26.526 274.651,12.726" style="fill:none;stroke-width:0.050000mm;stroke:black"/>
<polygon points="279.901,12.726 279.901,26.526 293.701,26.526 293.701,12.726" style="fill:none;stroke-width:0.050000mm;stroke:black"/>
<polygon points="318.001,12.726 318.001,26.526 331.801,26.526 331.801,12.726" style="fill:none;stroke-width:0.050000mm;stroke:black"/>
<polygon points="12.344,10.507 12.188,10.525 12.034,10.556 11.882,10.598 11.735,10.653 11.593,10.718 11.456,10.795 11.325,10.882 11.202,10.980 11.086,11.086 10.980,11.202 10.882,11.325 10.795,11.456 10.718,11.593 10.653,11.735 10.598,11.882 10.556,12.034 10.525,12.188 10.507,12.344 10.500,12.501 10.507,12.657 10.525,12.813 10.556,12.967 10.598,13.119 10.653,13.266 10.718,13.408 10.795,13.545 10.882,13.676 10.980,13.799 11.086,13.915 11.202,14.021 11.325,14.119 11.456,14.206 11.593,14.283 11.735,14.348 11.882,14.403 12.034,14.445 12.188,14.476 12.344,14.494 12.501,14.501 12.657,14.494 12.813,14.476 12.967,14.445 13.119,14.403 13.266,14.348 13.408,14.283 13.545,14.206 13.676,14.119 13.799,14.021 13.915,13.915 14.021,13.799 14.119,13.676 14.206,13.545 14.283,13.408 14.348,13.266 14.403,13.119 14.445,12.967 14.476,12.813 14.494,12.657 14.501,12.501 14.494,12.344 14.476,12.188 14.445,12.034 14.403,11.882 14.348,11.735 14.283,11.593 14.206,11.456 14.119,11.325 14.021,11.202 13.915,11.086 13.799,10.980 13.676,10.882 13.545,10.795 13.408,10.718 13.266,10.653 13.119,10.598 12.967,10.556 12.813,10.525 12.657,10.507 12.501,10.501" style="fill:none;stroke-width:0.050000mm;stroke:black"/>
<polygon points="341.870,10.507 341.714,10.525 341.560,10.556 341.408,10.598 341.261,10.653 341.119,10.718 340.982,10.795 340.851,10.882 340.728,10.980 340.612,11.086 340.506,11.202 340.408,11.325 340.321,11.456 340.244,11.593 340.179,11.735 340.124,11.882 340.082,12.034 340.051,12.188 340.033,12.344 340.027,12.501 340.033,12.657 340.051,12.813 340.082,12.967 340.124,13.119 340.179,13.266 340.244,13.408 340.321,13.545 340.408,13.676 340.506,13.799 340.612,13.915 340.728,14.021 340.851,14.119 340.982,14.206 341.119,14.283 341.261,14.348 341.408,14.403 341.560,14.445 341.714,14.476 341.870,14.494 342.027,14.501 342.183,14.494 342.339,14.476 342.493,14.445 342.645,14.403 342.792,14.348 342.934,14.283 343.071,14.206 343.202,14.119 343.325,14.021 343.441,13.915 343.547,13.799 343.645,13.676 343.732,13.545 343.809,13.408 343.874,13.266 343.929,13.119 343.971,12.967 344.002,12.813 344.020,12.657 344.027,12.501 344.020,12.344 344.002,12.188 343.971,12.034 343.929,11.882 343.874,11.735 343.809,11.593 343.732,11.456 343.645,11.325 343.547,11.202 343.441,11.086 343.325,10.980 343.202,10.882 343.071,10.795 342.934,10.718 342.792,10.653 342.645,10.598 342.493,10.556 342.339,10.525 342.183,10.507 342.027,10.501" style="fill:none;stroke-width:0.050000mm;stroke:black"/>
</svg>
