<?xml version="1.0"?>
<!-- Generated by SVGo -->
<svg width="354.527mm" height="139.264mm"
     viewBox="0.000 0.000 354.527 139.264"
     xmlns="http://www.w3.org/2000/svg" 
     xmlns:xlink="http://www.w3.org/1999/xlink">
<polygon points="344.527,5.001 344.919,5.016 345.309,5.062 345.694,5.139 346.072,5.245 346.440,5.381 346.796,5.545 347.139,5.737 347.465,5.955 347.774,6.198 348.062,6.465 348.329,6.753 348.572,7.062 348.790,7.388 348.982,7.731 349.146,8.087 349.282,8.455 349.388,8.833 349.465,9.218 349.511,9.608 349.526,10.001 349.527,129.264 349.511,129.656 349.465,130.045 349.388,130.431 349.282,130.809 349.146,131.177 348.982,131.534 348.790,131.876 348.572,132.203 348.329,132.511 348.062,132.800 347.774,133.066 347.465,133.309 347.139,133.527 346.796,133.719 346.440,133.883 346.072,134.019 345.694,134.126 345.309,134.202 344.919,134.249 344.527,134.264 10.001,134.264 9.608,134.249 9.218,134.202 8.833,134.126 8.455,134.019 8.087,133.883 7.731,133.719 7.388,133.527 7.062,133.309 6.753,133.066 6.465,132.800 6.198,132.511 5.955,132.203 5.737,131.876 5.545,131.534 5.381,131.177 5.245,130.809 5.139,130.431 5.062,130.045 5.016,129.656 5.000,129.264 5.001,10.001 5.016,9.608 5.062,9.218 5.139,8.833 5.245,8.455 5.381,8.087 5.545,7.731 5.737,7.388 5.955,7.062 6.198,6.753 6.465,6.465 6.753,6.198 7.062,5.955 7.388,5.737 7.731,5.545 8.087,5.381 8.455,5.245 8.833,5.139 9.218,5.062 9.608,5.016 10.001,5.000" style="fill:none;stroke-width:0.050000mm;stroke:black"/>
<polygon points="20.100,33.912 20.100,72.012 20.099,72.012 20.099,110.114 20.100,110.114 20.100,129.164 267.752,129.164 267.752,110.114 277.275,110.114 277.275,129.164 334.427,129.164 334.427,110.112 315.377,110.112 315.377,91.062 305.852,91.062 305.852,33.912" style="fill:none;stroke-width:0.050000mm;stroke:black"/>
<polygon points="12.344,124.770 12.188,124.789 12.034,124.819 11.882,124.862 11.735,124.916 11.593,124.982 11.456,125.059 11.325,125.146 11.202,125.243 11.086,125.350 10.980,125.465 10.882,125.588 10.795,125.719 10.718,125.856 10.653,125.999 10.598,126.146 10.556,126.297 10.525,126.451 10.507,126.607 10.500,126.764 10.507,126.921 10.525,127.077 10.556,127.231 10.598,127.382 10.653,127.529 10.718,127.672 10.795,127.809 10.882,127.940 10.980,128.063 11.086,128.177 11.202,128.284 11.325,128.382 11.456,128.468 11.593,128.545 11.735,128.611 11.882,128.665 12.034,128.709 12.188,128.739 12.344,128.758 12.501,128.764 12.657,128.758 12.813,128.739 12.967,128.709 13.119,128.665 13.266,128.611 13.408,128.545 13.545,128.468 13.676,128.382 13.799,128.284 13.915,128.177 14.021,128.063 14.119,127.940 14.206,127.809 14.283,127.672 14.348,127.529 14.403,127.382 14.445,127.231 14.476,127.077 14.494,126.921 14.501,126.764 14.494,126.607 14.476,126.451 14.445,126.297 14.403,126.146 14.348,125.999 14.283,125.856 14.206,125.719 14.119,125.588 14.021,125.465 13.915,125.350 13.799,125.243 13.676,125.146 13.545,125.059 13.408,124.982 13.266,124.916 13.119,124.862 12.967,124.819 12.813,124.789 12.657,124.770 12.501,124.764" style="fill:none;stroke-width:0.050000mm;stroke:black"/>
<polygon points="341.870,124.770 341.714,124.789 341.560,124.819 341.408,124.862 341.261,124.916 341.119,124.982 340.982,125.059 340.851,125.146 340.728,125.243 340.612,125.350 340.506,125.465 340.408,125.588 340.321,125.719 340.244,125.856 340.179,125.999 340.124,126.146 340.082,126.297 340.051,126.451 340.033,126.607 340.027,126.764 340.033,126.921 340.051,127.077 340.082,127.231 340.124,127.382 340.179,127.529 340.244,127.672 340.321,127.809 340.408,127.940 340.506,128.063 340.612,128.177 340.728,128.284 340.851,128.382 340.982,128.468 341.119,128.545 341.261,128.611 341.408,128.665 341.560,128.709 341.714,128.739 341.870,128.758 342.027,128.764 342.183,128.758 342.339,128.739 342.493,128.709 342.645,128.665 342.792,128.611 342.934,128.545 343.071,128.468 343.202,128.382 343.325,128.284 343.441,128.177 343.547,128.063 343.645,127.940 343.732,127.809 343.809,127.672 343.874,127.529 343.929,127.382 343.971,127.231 344.002,127.077 344.020,126.921 344.027,126.764 344.020,126.607 344.002,126.451 343.971,126.297 343.929,126.146 343.874,125.999 343.809,125.856 343.732,125.719 343.645,125.588 343.547,125.465 343.441,125.350 343.325,125.243 343.202,125.146 343.071,125.059 342.934,124.982 342.792,124.916 342.645,124.862 342.493,124.819 342.339,124.789 342.183,124.770 342.027,124.764" style="fill:none;stroke-width:0.050000mm;stroke:black"/>
<polygon points="315.375,43.437 315.375,81.539 334.427,81.539 334.427,43.437" style="fill:none;stroke-width:0.050000mm;stroke:black"/>
<polygon points="20.100,10.100 20.100,29.152 39.151,29.152 39.151,10.100" style="fill:none;stroke-width:0.050000mm;stroke:black"/>
<polygon points="48.675,10.100 48.675,29.152 124.876,29.152 124.876,10.100" style="fill:none;stroke-width:0.050000mm;stroke:black"/>
<polygon points="134.400,10.100 134.400,29.152 210.602,29.152 210.602,10.100" style="fill:none;stroke-width:0.050000mm;stroke:black"/>
<polygon points="220.125,10.100 220.125,29.152 296.327,29.152 296.327,10.100" style="fill:none;stroke-width:0.050000mm;stroke:black"/>
<polygon points="315.375,10.100 315.375,29.152 334.427,29.152 334.427,10.100" style="fill:none;stroke-width:0.050000mm;stroke:black"/>
<polygon points="12.344,10.507 12.188,10.525 12.034,10.556 11.882,10.598 11.735,10.653 11.593,10.718 11.456,10.795 11.325,10.882 11.202,10.980 11.086,11.086 10.980,11.202 10.882,11.325 10.795,11.456 10.718,11.593 10.653,11.735 10.598,11.882 10.556,12.034 10.525,12.188 10.507,12.344 10.500,12.501 10.507,12.657 10.525,12.813 10.556,12.967 10.598,13.119 10.653,13.266 10.718,13.408 10.795,13.545 10.882,13.676 10.980,13.799 11.086,13.915 11.202,14.021 11.325,14.119 11.456,14.206 11.593,14.283 11.735,14.348 11.882,14.403 12.034,14.445 12.188,14.476 12.344,14.494 12.501,14.501 12.657,14.494 12.813,14.476 12.967,14.445 13.119,14.403 13.266,14.348 13.408,14.283 13.545,14.206 13.676,14.119 13.799,14.021 13.915,13.915 14.021,13.799 14.119,13.676 14.206,13.545 14.283,13.408 14.348,13.266 14.403,13.119 14.445,12.967 14.476,12.813 14.494,12.657 14.501,12.501 14.494,12.344 14.476,12.188 14.445,12.034 14.403,11.882 14.348,11.735 14.283,11.593 14.206,11.456 14.119,11.325 14.021,11.202 13.915,11.086 13.799,10.980 13.676,10.882 13.545,10.795 13.408,10.718 13.266,10.653 13.119,10.598 12.967,10.556 12.813,10.525 12.657,10.507 12.501,10.501" style="fill:none;stroke-width:0.050000mm;stroke:black"/>
<polygon points="341.870,10.507 341.714,10.525 341.560,10.556 341.408,10.598 341.261,10.653 341.119,10.718 340.982,10.795 340.851,10.882 340.728,10.980 340.612,11.086 340.506,11.202 340.408,11.325 340.321,11.456 340.244,11.593 340.179,11.735 340.124,11.882 340.082,12.034 340.051,12.188 340.033,12.344 340.027,12.501 340.033,12.657 340.051,12.813 340.082,12.967 340.124,13.119 340.179,13.266 340.244,13.408 340.321,13.545 340.408,13.676 340.506,13.799 340.612,13.915 340.728,14.021 340.851,14.119 340.982,14.206 341.119,14.283 341.261,14.348 341.408,14.403 341.560,14.445 341.714,14.476 341.870,14.494 342.027,14.501 342.183,14.494 342.339,14.476 342.493,14.445 342.645,14.403 342.792,14.348 342.934,14.283 343.071,14.206 343.202,14.119 343.325,14.021 343.441,13.915 343.547,13.799 343.645,13.676 343.732,13.545 343.809,13.408 343.874,13.266 343.929,13.119 343.971,12.967 344.002,12.813 344.020,12.657 344.027,12.501 344.020,12.344 344.002,12.188 343.971,12.034 343.929,11.882 343.874,11.735 343.809,11.593 343.732,11.456 343.645,11.325 343.547,11.202 343.441,11.086 343.325,10.980 343.202,10.882 343.071,10.795 342.934,10.718 342.792,10.653 342.645,10.598 342.493,10.556 342.339,10.525 342.183,10.507 342.027,10.501" style="fill:none;stroke-width:0.050000mm;stroke:black"/>
</svg>
