<?xml version="1.0"?>
<!-- Generated by SVGo -->
<svg width="354.327mm" height="139.064mm"
     viewBox="0.000 0.000 354.327 139.064"
     xmlns="http://www.w3.org/2000/svg" 
     xmlns:xlink="http://www.w3.org/1999/xlink">
<polygon points="344.327,5.001 344.719,5.016 345.109,5.062 345.494,5.139 345.872,5.245 346.240,5.381 346.596,5.545 346.939,5.737 347.265,5.955 347.574,6.198 347.862,6.465 348.129,6.753 348.372,7.062 348.590,7.388 348.782,7.731 348.946,8.087 349.082,8.455 349.188,8.833 349.265,9.218 349.311,9.608 349.326,10.001 349.327,129.063 349.311,129.456 349.265,129.846 349.188,130.230 349.082,130.609 348.946,130.977 348.782,131.334 348.590,131.676 348.372,132.003 348.129,132.311 347.862,132.600 347.574,132.866 347.265,133.109 346.939,133.327 346.596,133.519 346.240,133.683 345.872,133.819 345.494,133.926 345.109,134.002 344.719,134.049 344.327,134.064 10.001,134.064 9.608,134.049 9.218,134.002 8.833,133.926 8.455,133.819 8.087,133.683 7.731,133.519 7.388,133.327 7.062,133.109 6.753,132.866 6.465,132.600 6.198,132.311 5.955,132.003 5.737,131.676 5.545,131.334 5.381,130.977 5.245,130.609 5.139,130.230 5.062,129.846 5.016,129.456 5.000,129.063 5.001,10.001 5.016,9.608 5.062,9.218 5.139,8.833 5.245,8.455 5.381,8.087 5.545,7.731 5.737,7.388 5.955,7.062 6.198,6.753 6.465,6.465 6.753,6.198 7.062,5.955 7.388,5.737 7.731,5.545 8.087,5.381 8.455,5.245 8.833,5.139 9.218,5.062 9.608,5.016 10.001,5.000" style="fill:none;stroke-width:0.050000mm;stroke:black"/>
<polygon points="10.500,123.100 8.501,126.564 10.501,130.027 14.501,130.027 16.501,126.564 14.501,123.100" style="fill:none;stroke-width:0.050000mm;stroke:black"/>
<polygon points="339.827,123.100 337.827,126.564 339.827,130.027 343.827,130.027 345.827,126.564 343.827,123.100" style="fill:none;stroke-width:0.050000mm;stroke:black"/>
<polygon points="119.164,89.300 118.164,91.032 119.164,92.764 121.164,92.764 122.164,91.032 121.164,89.300" style="fill:none;stroke-width:0.050000mm;stroke:black"/>
<polygon points="223.664,89.300 222.664,91.032 223.664,92.764 225.664,92.764 226.664,91.032 225.664,89.300" style="fill:none;stroke-width:0.050000mm;stroke:black"/>
<polygon points="123.664,51.300 122.664,53.032 123.664,54.764 125.664,54.764 126.664,53.032 125.664,51.300" style="fill:none;stroke-width:0.050000mm;stroke:black"/>
<polygon points="219.164,51.300 218.164,53.032 219.164,54.764 221.164,54.764 222.164,53.032 221.164,51.300" style="fill:none;stroke-width:0.050000mm;stroke:black"/>
<polygon points="10.500,9.036 8.501,12.501 10.501,15.965 14.501,15.965 16.501,12.500 14.501,9.036" style="fill:none;stroke-width:0.050000mm;stroke:black"/>
<polygon points="339.827,9.036 337.827,12.501 339.827,15.965 343.827,15.965 345.827,12.500 343.827,9.036" style="fill:none;stroke-width:0.050000mm;stroke:black"/>
</svg>
