<?xml version="1.0"?>
<!-- Generated by SVGo -->
<svg width="354.327mm" height="139.064mm"
     viewBox="0.000 0.000 354.327 139.064"
     xmlns="http://www.w3.org/2000/svg" 
     xmlns:xlink="http://www.w3.org/1999/xlink">
<polygon points="344.327,5.001 344.719,5.016 345.109,5.062 345.494,5.139 345.872,5.245 346.240,5.381 346.596,5.545 346.939,5.737 347.265,5.955 347.574,6.198 347.862,6.465 348.129,6.753 348.372,7.062 348.590,7.388 348.782,7.731 348.946,8.087 349.082,8.455 349.188,8.833 349.265,9.218 349.311,9.608 349.326,10.001 349.327,129.063 349.311,129.456 349.265,129.846 349.188,130.230 349.082,130.609 348.946,130.977 348.782,131.334 348.590,131.676 348.372,132.003 348.129,132.311 347.862,132.600 347.574,132.866 347.265,133.109 346.939,133.327 346.596,133.519 346.240,133.683 345.872,133.819 345.494,133.926 345.109,134.002 344.719,134.049 344.327,134.064 10.001,134.064 9.608,134.049 9.218,134.002 8.833,133.926 8.455,133.819 8.087,133.683 7.731,133.519 7.388,133.327 7.062,133.109 6.753,132.866 6.465,132.600 6.198,132.311 5.955,132.003 5.737,131.676 5.545,131.334 5.381,130.977 5.245,130.609 5.139,130.230 5.062,129.846 5.016,129.456 5.000,129.063 5.001,10.001 5.016,9.608 5.062,9.218 5.139,8.833 5.245,8.455 5.381,8.087 5.545,7.731 5.737,7.388 5.955,7.062 6.198,6.753 6.465,6.465 6.753,6.198 7.062,5.955 7.388,5.737 7.731,5.545 8.087,5.381 8.455,5.245 8.833,5.139 9.218,5.062 9.608,5.016 10.001,5.000" style="fill:none;stroke-width:0.050000mm;stroke:black"/>
<polygon points="12.344,124.570 12.188,124.589 12.034,124.619 11.882,124.662 11.735,124.716 11.593,124.782 11.456,124.859 11.325,124.946 11.202,125.043 11.086,125.150 10.980,125.265 10.882,125.388 10.795,125.519 10.718,125.656 10.653,125.799 10.598,125.946 10.556,126.097 10.525,126.251 10.507,126.407 10.500,126.564 10.507,126.721 10.525,126.877 10.556,127.031 10.598,127.182 10.653,127.329 10.718,127.472 10.795,127.609 10.882,127.740 10.980,127.863 11.086,127.978 11.202,128.085 11.325,128.182 11.456,128.269 11.593,128.346 11.735,128.412 11.882,128.466 12.034,128.509 12.188,128.539 12.344,128.557 12.501,128.563 12.657,128.557 12.813,128.539 12.967,128.509 13.119,128.466 13.266,128.412 13.408,128.346 13.545,128.269 13.676,128.182 13.799,128.085 13.915,127.978 14.021,127.863 14.119,127.740 14.206,127.609 14.283,127.472 14.348,127.329 14.403,127.182 14.445,127.031 14.476,126.877 14.494,126.721 14.501,126.564 14.494,126.407 14.476,126.251 14.445,126.097 14.403,125.946 14.348,125.799 14.283,125.656 14.206,125.519 14.119,125.388 14.021,125.265 13.915,125.150 13.799,125.043 13.676,124.946 13.545,124.859 13.408,124.782 13.266,124.716 13.119,124.662 12.967,124.619 12.813,124.589 12.657,124.570 12.501,124.564" style="fill:none;stroke-width:0.050000mm;stroke:black"/>
<polygon points="341.670,124.570 341.514,124.589 341.360,124.619 341.208,124.662 341.061,124.716 340.919,124.782 340.782,124.859 340.651,124.946 340.528,125.043 340.412,125.150 340.306,125.265 340.208,125.388 340.121,125.519 340.044,125.656 339.979,125.799 339.924,125.946 339.882,126.097 339.851,126.251 339.833,126.407 339.826,126.564 339.833,126.721 339.851,126.877 339.882,127.031 339.924,127.182 339.979,127.329 340.044,127.472 340.121,127.609 340.208,127.740 340.306,127.863 340.412,127.978 340.528,128.085 340.651,128.182 340.782,128.269 340.919,128.346 341.061,128.412 341.208,128.466 341.360,128.509 341.514,128.539 341.670,128.557 341.827,128.563 341.983,128.557 342.139,128.539 342.293,128.509 342.445,128.466 342.592,128.412 342.734,128.346 342.871,128.269 343.002,128.182 343.125,128.085 343.241,127.978 343.347,127.863 343.445,127.740 343.532,127.609 343.609,127.472 343.674,127.329 343.729,127.182 343.771,127.031 343.802,126.877 343.820,126.721 343.827,126.564 343.820,126.407 343.802,126.251 343.771,126.097 343.729,125.946 343.674,125.799 343.609,125.656 343.532,125.519 343.445,125.388 343.347,125.265 343.241,125.150 343.125,125.043 343.002,124.946 342.871,124.859 342.734,124.782 342.592,124.716 342.445,124.662 342.293,124.619 342.139,124.589 341.983,124.570 341.827,124.564" style="fill:none;stroke-width:0.050000mm;stroke:black"/>
<polygon points="153.494,112.538 153.494,117.238 113.869,117.238 113.869,114.008 107.119,114.008 107.119,117.238 106.294,117.238 106.294,120.038 107.119,120.038 107.119,126.308 108.844,126.308 108.844,127.508 112.144,127.508 112.144,126.308 113.869,126.308 113.869,121.838 153.494,121.838 153.494,126.538 167.494,126.538 167.494,121.838 207.119,121.838 207.119,126.308 208.844,126.308 208.844,127.508 212.144,127.508 212.144,126.308 213.869,126.308 213.869,120.038 214.694,120.038 214.694,117.238 213.869,117.238 213.869,114.008 207.119,114.008 207.119,117.238 167.494,117.238 167.494,112.538" style="fill:none;stroke-width:0.050000mm;stroke:black"/>
<polygon points="22.526,112.538 22.526,126.538 36.526,126.538 36.526,112.538" style="fill:none;stroke-width:0.050000mm;stroke:black"/>
<polygon points="41.576,112.538 41.576,126.538 55.576,126.538 55.576,112.538" style="fill:none;stroke-width:0.050000mm;stroke:black"/>
<polygon points="60.626,112.538 60.626,126.538 74.626,126.538 74.626,112.538" style="fill:none;stroke-width:0.050000mm;stroke:black"/>
<polygon points="82.057,112.538 82.057,126.538 96.057,126.538 96.057,112.538" style="fill:none;stroke-width:0.050000mm;stroke:black"/>
<polygon points="224.932,112.538 224.932,126.538 238.932,126.538 238.932,112.538" style="fill:none;stroke-width:0.050000mm;stroke:black"/>
<polygon points="248.744,112.538 248.744,126.538 262.744,126.538 262.744,112.538" style="fill:none;stroke-width:0.050000mm;stroke:black"/>
<polygon points="279.701,112.538 279.701,126.538 293.701,126.538 293.701,112.538" style="fill:none;stroke-width:0.050000mm;stroke:black"/>
<polygon points="298.751,112.538 298.751,126.538 312.751,126.538 312.751,112.538" style="fill:none;stroke-width:0.050000mm;stroke:black"/>
<polygon points="317.801,112.538 317.801,126.538 331.801,126.538 331.801,112.538" style="fill:none;stroke-width:0.050000mm;stroke:black"/>
<polygon points="34.432,93.488 34.432,98.188 32.907,98.188 32.907,94.958 26.157,94.958 26.157,98.188 25.332,98.188 25.332,100.988 26.157,100.988 26.157,107.258 27.882,107.258 27.882,108.458 31.182,108.458 31.182,107.258 32.907,107.258 32.907,102.788 34.432,102.788 34.432,107.488 48.432,107.488 48.432,102.788 49.957,102.788 49.957,107.258 51.682,107.258 51.682,108.458 54.982,108.458 54.982,107.258 56.707,107.258 56.707,100.988 57.532,100.988 57.532,98.188 56.707,98.188 56.707,94.958 49.957,94.958 49.957,98.188 48.432,98.188 48.432,93.488" style="fill:none;stroke-width:0.050000mm;stroke:black"/>
<polygon points="267.794,93.488 267.794,98.188 266.269,98.188 266.269,94.958 259.518,94.958 259.518,98.188 258.693,98.188 258.693,100.988 259.518,100.988 259.518,107.258 261.244,107.258 261.244,108.458 264.544,108.458 264.544,107.258 266.269,107.258 266.269,102.788 267.794,102.788 267.794,107.488 281.794,107.488 281.794,102.788 283.319,102.788 283.319,107.258 285.044,107.258 285.044,108.458 288.344,108.458 288.344,107.258 290.069,107.258 290.069,100.988 290.894,100.988 290.894,98.188 290.069,98.188 290.069,94.958 283.319,94.958 283.319,98.188 281.794,98.188 281.794,93.488" style="fill:none;stroke-width:0.050000mm;stroke:black"/>
<polygon points="65.388,93.488 65.388,107.488 79.388,107.488 79.388,93.488" style="fill:none;stroke-width:0.050000mm;stroke:black"/>
<polygon points="84.438,93.488 84.438,107.488 98.438,107.488 98.438,93.488" style="fill:none;stroke-width:0.050000mm;stroke:black"/>
<polygon points="103.488,93.488 103.488,107.488 117.488,107.488 117.488,93.488" style="fill:none;stroke-width:0.050000mm;stroke:black"/>
<polygon points="122.538,93.488 122.538,107.488 136.538,107.488 136.538,93.488" style="fill:none;stroke-width:0.050000mm;stroke:black"/>
<polygon points="141.588,93.488 141.588,107.488 155.588,107.488 155.588,93.488" style="fill:none;stroke-width:0.050000mm;stroke:black"/>
<polygon points="160.638,93.488 160.638,107.488 174.638,107.488 174.638,93.488" style="fill:none;stroke-width:0.050000mm;stroke:black"/>
<polygon points="179.688,93.488 179.688,107.488 193.688,107.488 193.688,93.488" style="fill:none;stroke-width:0.050000mm;stroke:black"/>
<polygon points="198.738,93.488 198.738,107.488 212.738,107.488 212.738,93.488" style="fill:none;stroke-width:0.050000mm;stroke:black"/>
<polygon points="217.788,93.488 217.788,107.488 231.788,107.488 231.788,93.488" style="fill:none;stroke-width:0.050000mm;stroke:black"/>
<polygon points="236.838,93.488 236.838,107.488 250.838,107.488 250.838,93.488" style="fill:none;stroke-width:0.050000mm;stroke:black"/>
<polygon points="298.751,93.488 298.751,107.488 312.751,107.488 312.751,93.488" style="fill:none;stroke-width:0.050000mm;stroke:black"/>
<polygon points="120.085,90.035 120.007,90.045 119.930,90.060 119.854,90.081 119.781,90.108 119.710,90.141 119.641,90.180 119.576,90.223 119.514,90.272 119.456,90.325 119.403,90.383 119.354,90.444 119.311,90.510 119.272,90.578 119.240,90.650 119.212,90.723 119.191,90.799 119.176,90.876 119.167,90.954 119.164,91.032 119.167,91.111 119.176,91.189 119.191,91.266 119.212,91.341 119.240,91.415 119.272,91.486 119.311,91.555 119.354,91.620 119.403,91.682 119.456,91.739 119.514,91.793 119.576,91.841 119.641,91.885 119.710,91.923 119.781,91.956 119.854,91.983 119.930,92.005 120.007,92.020 120.085,92.029 120.164,92.032 120.242,92.029 120.320,92.020 120.397,92.005 120.473,91.983 120.546,91.956 120.617,91.923 120.686,91.885 120.751,91.841 120.813,91.793 120.871,91.739 120.924,91.682 120.973,91.620 121.016,91.555 121.055,91.486 121.087,91.415 121.115,91.341 121.136,91.266 121.151,91.189 121.160,91.111 121.164,91.032 121.160,90.954 121.151,90.876 121.136,90.799 121.115,90.723 121.087,90.650 121.055,90.578 121.016,90.510 120.973,90.444 120.924,90.383 120.871,90.325 120.813,90.272 120.751,90.223 120.686,90.180 120.617,90.141 120.546,90.108 120.473,90.081 120.397,90.060 120.320,90.045 120.242,90.035 120.164,90.032" style="fill:none;stroke-width:0.050000mm;stroke:black"/>
<polygon points="224.585,90.035 224.507,90.045 224.430,90.060 224.354,90.081 224.281,90.108 224.210,90.141 224.141,90.180 224.076,90.223 224.014,90.272 223.956,90.325 223.903,90.383 223.854,90.444 223.811,90.510 223.772,90.578 223.740,90.650 223.712,90.723 223.691,90.799 223.676,90.876 223.667,90.954 223.663,91.032 223.667,91.111 223.676,91.189 223.691,91.266 223.712,91.341 223.740,91.415 223.772,91.486 223.811,91.555 223.854,91.620 223.903,91.682 223.956,91.739 224.014,91.793 224.076,91.841 224.141,91.885 224.210,91.923 224.281,91.956 224.354,91.983 224.430,92.005 224.507,92.020 224.585,92.029 224.664,92.032 224.742,92.029 224.820,92.020 224.897,92.005 224.973,91.983 225.046,91.956 225.117,91.923 225.186,91.885 225.251,91.841 225.313,91.793 225.371,91.739 225.424,91.682 225.473,91.620 225.516,91.555 225.555,91.486 225.587,91.415 225.615,91.341 225.636,91.266 225.651,91.189 225.660,91.111 225.664,91.032 225.660,90.954 225.651,90.876 225.636,90.799 225.615,90.723 225.587,90.650 225.555,90.578 225.516,90.510 225.473,90.444 225.424,90.383 225.371,90.325 225.313,90.272 225.251,90.223 225.186,90.180 225.117,90.141 225.046,90.108 224.973,90.081 224.897,90.060 224.820,90.045 224.742,90.035 224.664,90.032" style="fill:none;stroke-width:0.050000mm;stroke:black"/>
<polygon points="277.319,74.438 277.319,79.138 275.794,79.138 275.794,75.908 269.044,75.908 269.044,79.138 268.219,79.138 268.219,81.938 269.044,81.938 269.044,88.208 270.769,88.208 270.769,89.408 274.069,89.408 274.069,88.208 275.794,88.208 275.794,83.738 277.319,83.738 277.319,88.438 291.319,88.438 291.319,83.738 292.844,83.738 292.844,88.208 294.569,88.208 294.569,89.408 297.869,89.408 297.869,88.208 299.594,88.208 299.594,81.938 300.419,81.938 300.419,79.138 299.594,79.138 299.594,75.908 292.844,75.908 292.844,79.138 291.319,79.138 291.319,74.438" style="fill:none;stroke-width:0.050000mm;stroke:black"/>
<polygon points="29.669,74.438 29.669,88.438 43.669,88.438 43.669,74.438" style="fill:none;stroke-width:0.050000mm;stroke:black"/>
<polygon points="55.863,74.438 55.863,88.438 69.863,88.438 69.863,74.438" style="fill:none;stroke-width:0.050000mm;stroke:black"/>
<polygon points="74.913,74.438 74.913,88.438 88.913,88.438 88.913,74.438" style="fill:none;stroke-width:0.050000mm;stroke:black"/>
<polygon points="93.963,74.438 93.963,88.438 107.963,88.438 107.963,74.438" style="fill:none;stroke-width:0.050000mm;stroke:black"/>
<polygon points="113.013,74.438 113.013,88.438 127.013,88.438 127.013,74.438" style="fill:none;stroke-width:0.050000mm;stroke:black"/>
<polygon points="132.063,74.438 132.063,88.438 146.063,88.438 146.063,74.438" style="fill:none;stroke-width:0.050000mm;stroke:black"/>
<polygon points="151.113,74.438 151.113,88.438 165.113,88.438 165.113,74.438" style="fill:none;stroke-width:0.050000mm;stroke:black"/>
<polygon points="170.163,74.438 170.163,88.438 184.163,88.438 184.163,74.438" style="fill:none;stroke-width:0.050000mm;stroke:black"/>
<polygon points="189.213,74.438 189.213,88.438 203.213,88.438 203.213,74.438" style="fill:none;stroke-width:0.050000mm;stroke:black"/>
<polygon points="208.263,74.438 208.263,88.438 222.263,88.438 222.263,74.438" style="fill:none;stroke-width:0.050000mm;stroke:black"/>
<polygon points="227.313,74.438 227.313,88.438 241.313,88.438 241.313,74.438" style="fill:none;stroke-width:0.050000mm;stroke:black"/>
<polygon points="246.363,74.438 246.363,88.438 260.363,88.438 260.363,74.438" style="fill:none;stroke-width:0.050000mm;stroke:black"/>
<polygon points="317.801,64.913 317.801,78.913 331.801,78.913 331.801,64.913" style="fill:none;stroke-width:0.050000mm;stroke:black"/>
<polygon points="27.288,55.388 27.288,69.388 41.288,69.388 41.288,55.388" style="fill:none;stroke-width:0.050000mm;stroke:black"/>
<polygon points="51.101,55.388 51.101,69.388 65.100,69.388 65.100,55.388" style="fill:none;stroke-width:0.050000mm;stroke:black"/>
<polygon points="70.151,55.388 70.151,69.388 84.151,69.388 84.151,55.388" style="fill:none;stroke-width:0.050000mm;stroke:black"/>
<polygon points="89.201,55.388 89.201,69.388 103.201,69.388 103.201,55.388" style="fill:none;stroke-width:0.050000mm;stroke:black"/>
<polygon points="108.251,55.388 108.251,69.388 122.251,69.388 122.251,55.388" style="fill:none;stroke-width:0.050000mm;stroke:black"/>
<polygon points="127.301,55.388 127.301,69.388 141.301,69.388 141.301,55.388" style="fill:none;stroke-width:0.050000mm;stroke:black"/>
<polygon points="146.351,55.388 146.351,69.388 160.351,69.388 160.351,55.388" style="fill:none;stroke-width:0.050000mm;stroke:black"/>
<polygon points="165.401,55.388 165.401,69.388 179.401,69.388 179.401,55.388" style="fill:none;stroke-width:0.050000mm;stroke:black"/>
<polygon points="184.451,55.388 184.451,69.388 198.451,69.388 198.451,55.388" style="fill:none;stroke-width:0.050000mm;stroke:black"/>
<polygon points="203.501,55.388 203.501,69.388 217.501,69.388 217.501,55.388" style="fill:none;stroke-width:0.050000mm;stroke:black"/>
<polygon points="222.551,55.388 222.551,69.388 236.551,69.388 236.551,55.388" style="fill:none;stroke-width:0.050000mm;stroke:black"/>
<polygon points="241.601,55.388 241.601,69.388 255.601,69.388 255.601,55.388" style="fill:none;stroke-width:0.050000mm;stroke:black"/>
<polygon points="260.650,55.388 260.650,69.388 274.651,69.388 274.651,55.388" style="fill:none;stroke-width:0.050000mm;stroke:black"/>
<polygon points="284.463,55.388 284.463,69.388 298.463,69.388 298.463,55.388" style="fill:none;stroke-width:0.050000mm;stroke:black"/>
<polygon points="317.801,45.863 317.801,59.863 331.801,59.863 331.801,45.863" style="fill:none;stroke-width:0.050000mm;stroke:black"/>
<polygon points="124.585,52.035 124.507,52.045 124.430,52.060 124.354,52.081 124.281,52.108 124.210,52.141 124.141,52.180 124.076,52.223 124.014,52.272 123.956,52.325 123.903,52.383 123.854,52.444 123.811,52.510 123.772,52.578 123.740,52.650 123.712,52.723 123.691,52.799 123.676,52.876 123.667,52.954 123.664,53.032 123.667,53.111 123.676,53.189 123.691,53.266 123.712,53.341 123.740,53.415 123.772,53.486 123.811,53.555 123.854,53.620 123.903,53.682 123.956,53.739 124.014,53.793 124.076,53.841 124.141,53.885 124.210,53.923 124.281,53.956 124.354,53.983 124.430,54.005 124.507,54.020 124.585,54.029 124.664,54.032 124.742,54.029 124.820,54.020 124.897,54.005 124.973,53.983 125.046,53.956 125.117,53.923 125.186,53.885 125.251,53.841 125.313,53.793 125.371,53.739 125.424,53.682 125.473,53.620 125.516,53.555 125.555,53.486 125.587,53.415 125.615,53.341 125.636,53.266 125.651,53.189 125.660,53.111 125.664,53.032 125.660,52.954 125.651,52.876 125.636,52.799 125.615,52.723 125.587,52.650 125.555,52.578 125.516,52.510 125.473,52.444 125.424,52.383 125.371,52.325 125.313,52.272 125.251,52.223 125.186,52.180 125.117,52.141 125.046,52.108 124.973,52.081 124.897,52.060 124.820,52.045 124.742,52.035 124.664,52.032" style="fill:none;stroke-width:0.050000mm;stroke:black"/>
<polygon points="220.085,52.035 220.007,52.045 219.930,52.060 219.854,52.081 219.781,52.108 219.710,52.141 219.641,52.180 219.576,52.223 219.514,52.272 219.456,52.325 219.403,52.383 219.354,52.444 219.311,52.510 219.272,52.578 219.240,52.650 219.212,52.723 219.191,52.799 219.176,52.876 219.167,52.954 219.163,53.032 219.167,53.111 219.176,53.189 219.191,53.266 219.212,53.341 219.240,53.415 219.272,53.486 219.311,53.555 219.354,53.620 219.403,53.682 219.456,53.739 219.514,53.793 219.576,53.841 219.641,53.885 219.710,53.923 219.781,53.956 219.854,53.983 219.930,54.005 220.007,54.020 220.085,54.029 220.164,54.032 220.242,54.029 220.320,54.020 220.397,54.005 220.473,53.983 220.546,53.956 220.617,53.923 220.686,53.885 220.751,53.841 220.813,53.793 220.871,53.739 220.924,53.682 220.973,53.620 221.016,53.555 221.055,53.486 221.087,53.415 221.115,53.341 221.136,53.266 221.151,53.189 221.160,53.111 221.164,53.032 221.160,52.954 221.151,52.876 221.136,52.799 221.115,52.723 221.087,52.650 221.055,52.578 221.016,52.510 220.973,52.444 220.924,52.383 220.871,52.325 220.813,52.272 220.751,52.223 220.686,52.180 220.617,52.141 220.546,52.108 220.473,52.081 220.397,52.060 220.320,52.045 220.242,52.035 220.164,52.032" style="fill:none;stroke-width:0.050000mm;stroke:black"/>
<polygon points="279.701,36.338 279.701,41.038 278.176,41.038 278.176,37.808 271.426,37.808 271.426,41.038 270.601,41.038 270.601,43.838 271.426,43.838 271.426,50.108 273.151,50.108 273.151,51.308 276.451,51.308 276.451,50.108 278.176,50.108 278.176,45.638 279.701,45.638 279.701,50.338 293.701,50.338 293.701,45.638 295.226,45.638 295.226,50.108 296.951,50.108 296.951,51.308 300.251,51.308 300.251,50.108 301.976,50.108 301.976,43.838 302.801,43.838 302.801,41.038 301.976,41.038 301.976,37.808 295.226,37.808 295.226,41.038 293.701,41.038 293.701,36.338" style="fill:none;stroke-width:0.050000mm;stroke:black"/>
<polygon points="22.526,36.338 22.526,50.338 36.526,50.338 36.526,36.338" style="fill:none;stroke-width:0.050000mm;stroke:black"/>
<polygon points="41.576,36.338 41.576,50.338 55.576,50.338 55.576,36.338" style="fill:none;stroke-width:0.050000mm;stroke:black"/>
<polygon points="60.626,36.338 60.626,50.338 74.626,50.338 74.626,36.338" style="fill:none;stroke-width:0.050000mm;stroke:black"/>
<polygon points="79.676,36.338 79.676,50.338 93.676,50.338 93.676,36.338" style="fill:none;stroke-width:0.050000mm;stroke:black"/>
<polygon points="98.726,36.338 98.726,50.338 112.726,50.338 112.726,36.338" style="fill:none;stroke-width:0.050000mm;stroke:black"/>
<polygon points="117.775,36.338 117.775,50.338 131.775,50.338 131.775,36.338" style="fill:none;stroke-width:0.050000mm;stroke:black"/>
<polygon points="136.826,36.338 136.826,50.338 150.826,50.338 150.826,36.338" style="fill:none;stroke-width:0.050000mm;stroke:black"/>
<polygon points="155.876,36.338 155.876,50.338 169.876,50.338 169.876,36.338" style="fill:none;stroke-width:0.050000mm;stroke:black"/>
<polygon points="174.926,36.338 174.926,50.338 188.926,50.338 188.926,36.338" style="fill:none;stroke-width:0.050000mm;stroke:black"/>
<polygon points="193.976,36.338 193.976,50.338 207.976,50.338 207.976,36.338" style="fill:none;stroke-width:0.050000mm;stroke:black"/>
<polygon points="213.026,36.338 213.026,50.338 227.026,50.338 227.026,36.338" style="fill:none;stroke-width:0.050000mm;stroke:black"/>
<polygon points="232.076,36.338 232.076,50.338 246.076,50.338 246.076,36.338" style="fill:none;stroke-width:0.050000mm;stroke:black"/>
<polygon points="251.126,36.338 251.126,50.338 265.126,50.338 265.126,36.338" style="fill:none;stroke-width:0.050000mm;stroke:black"/>
<polygon points="22.526,12.525 22.526,26.526 36.526,26.526 36.526,12.525" style="fill:none;stroke-width:0.050000mm;stroke:black"/>
<polygon points="51.101,12.525 51.101,26.526 65.100,26.526 65.100,12.525" style="fill:none;stroke-width:0.050000mm;stroke:black"/>
<polygon points="70.151,12.525 70.151,26.526 84.151,26.526 84.151,12.525" style="fill:none;stroke-width:0.050000mm;stroke:black"/>
<polygon points="89.201,12.525 89.201,26.526 103.201,26.526 103.201,12.525" style="fill:none;stroke-width:0.050000mm;stroke:black"/>
<polygon points="108.251,12.525 108.251,26.526 122.251,26.526 122.251,12.525" style="fill:none;stroke-width:0.050000mm;stroke:black"/>
<polygon points="136.826,12.525 136.826,26.526 150.826,26.526 150.826,12.525" style="fill:none;stroke-width:0.050000mm;stroke:black"/>
<polygon points="155.876,12.525 155.876,26.526 169.876,26.526 169.876,12.525" style="fill:none;stroke-width:0.050000mm;stroke:black"/>
<polygon points="174.926,12.525 174.926,26.526 188.926,26.526 188.926,12.525" style="fill:none;stroke-width:0.050000mm;stroke:black"/>
<polygon points="193.976,12.525 193.976,26.526 207.976,26.526 207.976,12.525" style="fill:none;stroke-width:0.050000mm;stroke:black"/>
<polygon points="222.551,12.525 222.551,26.526 236.551,26.526 236.551,12.525" style="fill:none;stroke-width:0.050000mm;stroke:black"/>
<polygon points="241.601,12.525 241.601,26.526 255.601,26.526 255.601,12.525" style="fill:none;stroke-width:0.050000mm;stroke:black"/>
<polygon points="260.650,12.525 260.650,26.526 274.651,26.526 274.651,12.525" style="fill:none;stroke-width:0.050000mm;stroke:black"/>
<polygon points="279.701,12.525 279.701,26.526 293.701,26.526 293.701,12.525" style="fill:none;stroke-width:0.050000mm;stroke:black"/>
<polygon points="317.801,12.525 317.801,26.526 331.801,26.526 331.801,12.525" style="fill:none;stroke-width:0.050000mm;stroke:black"/>
<polygon points="12.344,10.507 12.188,10.525 12.034,10.556 11.882,10.598 11.735,10.653 11.593,10.718 11.456,10.795 11.325,10.882 11.202,10.980 11.086,11.086 10.980,11.202 10.882,11.325 10.795,11.456 10.718,11.593 10.653,11.735 10.598,11.882 10.556,12.034 10.525,12.188 10.507,12.344 10.500,12.501 10.507,12.657 10.525,12.813 10.556,12.967 10.598,13.119 10.653,13.266 10.718,13.408 10.795,13.545 10.882,13.676 10.980,13.799 11.086,13.915 11.202,14.021 11.325,14.119 11.456,14.206 11.593,14.283 11.735,14.348 11.882,14.403 12.034,14.445 12.188,14.476 12.344,14.494 12.501,14.501 12.657,14.494 12.813,14.476 12.967,14.445 13.119,14.403 13.266,14.348 13.408,14.283 13.545,14.206 13.676,14.119 13.799,14.021 13.915,13.915 14.021,13.799 14.119,13.676 14.206,13.545 14.283,13.408 14.348,13.266 14.403,13.119 14.445,12.967 14.476,12.813 14.494,12.657 14.501,12.501 14.494,12.344 14.476,12.188 14.445,12.034 14.403,11.882 14.348,11.735 14.283,11.593 14.206,11.456 14.119,11.325 14.021,11.202 13.915,11.086 13.799,10.980 13.676,10.882 13.545,10.795 13.408,10.718 13.266,10.653 13.119,10.598 12.967,10.556 12.813,10.525 12.657,10.507 12.501,10.501" style="fill:none;stroke-width:0.050000mm;stroke:black"/>
<polygon points="341.670,10.507 341.514,10.525 341.360,10.556 341.208,10.598 341.061,10.653 340.919,10.718 340.782,10.795 340.651,10.882 340.528,10.980 340.412,11.086 340.306,11.202 340.208,11.325 340.121,11.456 340.044,11.593 339.979,11.735 339.924,11.882 339.882,12.034 339.851,12.188 339.833,12.344 339.826,12.501 339.833,12.657 339.851,12.813 339.882,12.967 339.924,13.119 339.979,13.266 340.044,13.408 340.121,13.545 340.208,13.676 340.306,13.799 340.412,13.915 340.528,14.021 340.651,14.119 340.782,14.206 340.919,14.283 341.061,14.348 341.208,14.403 341.360,14.445 341.514,14.476 341.670,14.494 341.827,14.501 341.983,14.494 342.139,14.476 342.293,14.445 342.445,14.403 342.592,14.348 342.734,14.283 342.871,14.206 343.002,14.119 343.125,14.021 343.241,13.915 343.347,13.799 343.445,13.676 343.532,13.545 343.609,13.408 343.674,13.266 343.729,13.119 343.771,12.967 343.802,12.813 343.820,12.657 343.827,12.501 343.820,12.344 343.802,12.188 343.771,12.034 343.729,11.882 343.674,11.735 343.609,11.593 343.532,11.456 343.445,11.325 343.347,11.202 343.241,11.086 343.125,10.980 343.002,10.882 342.871,10.795 342.734,10.718 342.592,10.653 342.445,10.598 342.293,10.556 342.139,10.525 341.983,10.507 341.827,10.501" style="fill:none;stroke-width:0.050000mm;stroke:black"/>
</svg>
